<svg id="visual" viewBox="0 0 1920 1080" width="1920" height="1080" xmlns="http://www.w3.org/2000/svg" xmlns:xlink="http://www.w3.org/1999/xlink" version="1.1"><g stroke-width="1" stroke-linejoin="bevel"><path d="M917.7 474.9L1058.3 572.1L1078.3 504.9Z" fill="#855403" stroke="#855403"></path><path d="M917.7 474.9L865.7 663.1L1058.3 572.1Z" fill="#aa6f0e" stroke="#aa6f0e"></path><path d="M1073.3 756.4L1185.8 580.1L1058.3 572.1Z" fill="#794b01" stroke="#794b01"></path><path d="M1058.3 572.1L1185.8 580.1L1078.3 504.9Z" fill="#855403" stroke="#855403"></path><path d="M1179.8 349.6L1069.3 310.6L1078.3 504.9Z" fill="#915d06" stroke="#915d06"></path><path d="M1078.3 504.9L1069.3 310.6L917.7 474.9Z" fill="#ec9e22" stroke="#ec9e22"></path><path d="M1262.8 447.9L1179.8 349.6L1078.3 504.9Z" fill="#b77812" stroke="#b77812"></path><path d="M865.7 663.1L1073.3 756.4L1058.3 572.1Z" fill="#9e660a" stroke="#9e660a"></path><path d="M884.7 742.4L1073.3 756.4L865.7 663.1Z" fill="#aa6f0e" stroke="#aa6f0e"></path><path d="M1069.3 310.6L880.7 280.6L917.7 474.9Z" fill="#de941e" stroke="#de941e"></path><path d="M917.7 474.9L720.2 617.1L865.7 663.1Z" fill="#c48116" stroke="#c48116"></path><path d="M1185.8 580.1L1262.8 447.9L1078.3 504.9Z" fill="#855403" stroke="#855403"></path><path d="M880.7 280.6L719.2 459.9L917.7 474.9Z" fill="#ec9e22" stroke="#ec9e22"></path><path d="M865.7 663.1L679.2 760.4L884.7 742.4Z" fill="#f9a826" stroke="#f9a826"></path><path d="M719.2 459.9L720.2 617.1L917.7 474.9Z" fill="#aa6f0e" stroke="#aa6f0e"></path><path d="M880.7 280.6L705.2 344.6L719.2 459.9Z" fill="#f9a826" stroke="#f9a826"></path><path d="M566.6 733.4L679.2 760.4L720.2 617.1Z" fill="#855403" stroke="#855403"></path><path d="M1246.8 896.7L1267.8 786.4L1073.3 756.4Z" fill="#855403" stroke="#855403"></path><path d="M1073.3 756.4L1267.8 786.4L1185.8 580.1Z" fill="#9e660a" stroke="#9e660a"></path><path d="M1185.8 580.1L1359.4 640.1L1262.8 447.9Z" fill="#d18b1a" stroke="#d18b1a"></path><path d="M1267.8 786.4L1359.4 640.1L1185.8 580.1Z" fill="#b77812" stroke="#b77812"></path><path d="M1196.8 171.3L1017.3 127.3L1069.3 310.6Z" fill="#aa6f0e" stroke="#aa6f0e"></path><path d="M1069.3 310.6L1017.3 127.3L880.7 280.6Z" fill="#aa6f0e" stroke="#aa6f0e"></path><path d="M880.7 280.6L663.2 182.3L705.2 344.6Z" fill="#c48116" stroke="#c48116"></path><path d="M1196.8 171.3L1069.3 310.6L1179.8 349.6Z" fill="#855403" stroke="#855403"></path><path d="M720.2 617.1L679.2 760.4L865.7 663.1Z" fill="#c48116" stroke="#c48116"></path><path d="M884.7 742.4L869.7 896.7L1073.3 756.4Z" fill="#9e660a" stroke="#9e660a"></path><path d="M559.6 440.9L720.2 617.1L719.2 459.9Z" fill="#9e660a" stroke="#9e660a"></path><path d="M1359.4 640.1L1387.4 451.9L1262.8 447.9Z" fill="#c48116" stroke="#c48116"></path><path d="M1262.8 447.9L1400.4 268.6L1179.8 349.6Z" fill="#f9a826" stroke="#f9a826"></path><path d="M679.2 760.4L869.7 896.7L884.7 742.4Z" fill="#f9a826" stroke="#f9a826"></path><path d="M1400.4 268.6L1196.8 171.3L1179.8 349.6Z" fill="#9e660a" stroke="#9e660a"></path><path d="M1017.3 127.3L864.7 114.3L880.7 280.6Z" fill="#b77812" stroke="#b77812"></path><path d="M869.7 896.7L1035.3 949.7L1073.3 756.4Z" fill="#de941e" stroke="#de941e"></path><path d="M490.6 281.6L559.6 440.9L705.2 344.6Z" fill="#9e660a" stroke="#9e660a"></path><path d="M705.2 344.6L559.6 440.9L719.2 459.9Z" fill="#855403" stroke="#855403"></path><path d="M1035.3 949.7L1246.8 896.7L1073.3 756.4Z" fill="#b77812" stroke="#b77812"></path><path d="M1267.8 786.4L1418.4 747.4L1359.4 640.1Z" fill="#f9a826" stroke="#f9a826"></path><path d="M864.7 114.3L663.2 182.3L880.7 280.6Z" fill="#de941e" stroke="#de941e"></path><path d="M1387.4 451.9L1400.4 268.6L1262.8 447.9Z" fill="#f9a826" stroke="#f9a826"></path><path d="M514.6 650.1L566.6 733.4L720.2 617.1Z" fill="#ec9e22" stroke="#ec9e22"></path><path d="M679.2 760.4L679.2 949.7L869.7 896.7Z" fill="#de941e" stroke="#de941e"></path><path d="M1386.4 892.7L1418.4 747.4L1267.8 786.4Z" fill="#b77812" stroke="#b77812"></path><path d="M1540.9 652.1L1541.9 452.9L1387.4 451.9Z" fill="#794b01" stroke="#794b01"></path><path d="M1387.4 451.9L1541.9 452.9L1400.4 268.6Z" fill="#855403" stroke="#855403"></path><path d="M559.6 440.9L514.6 650.1L720.2 617.1Z" fill="#ec9e22" stroke="#ec9e22"></path><path d="M1196.8 171.3L1058.3 0L1017.3 127.3Z" fill="#ec9e22" stroke="#ec9e22"></path><path d="M1017.3 127.3L879.7 0L864.7 114.3Z" fill="#ec9e22" stroke="#ec9e22"></path><path d="M864.7 114.3L744.2 0L663.2 182.3Z" fill="#794b01" stroke="#794b01"></path><path d="M1210.8 0L1058.3 0L1196.8 171.3Z" fill="#9e660a" stroke="#9e660a"></path><path d="M1058.3 0L879.7 0L1017.3 127.3Z" fill="#ec9e22" stroke="#ec9e22"></path><path d="M567.6 954.7L679.2 949.7L679.2 760.4Z" fill="#c48116" stroke="#c48116"></path><path d="M873.7 1080L1040.3 1080L1035.3 949.7Z" fill="#d18b1a" stroke="#d18b1a"></path><path d="M567.6 954.7L679.2 760.4L566.6 733.4Z" fill="#aa6f0e" stroke="#aa6f0e"></path><path d="M1400.4 268.6L1390.4 157.3L1196.8 171.3Z" fill="#c48116" stroke="#c48116"></path><path d="M544.6 0L561.6 190.3L663.2 182.3Z" fill="#b77812" stroke="#b77812"></path><path d="M663.2 182.3L561.6 190.3L705.2 344.6Z" fill="#855403" stroke="#855403"></path><path d="M559.6 440.9L356.1 630.1L514.6 650.1Z" fill="#f9a826" stroke="#f9a826"></path><path d="M1351.4 1080L1386.4 892.7L1246.8 896.7Z" fill="#c48116" stroke="#c48116"></path><path d="M1246.8 896.7L1386.4 892.7L1267.8 786.4Z" fill="#b77812" stroke="#b77812"></path><path d="M1540.9 652.1L1387.4 451.9L1359.4 640.1Z" fill="#9e660a" stroke="#9e660a"></path><path d="M1400.4 268.6L1563.9 262.6L1390.4 157.3Z" fill="#ec9e22" stroke="#ec9e22"></path><path d="M1540.9 652.1L1359.4 640.1L1418.4 747.4Z" fill="#915d06" stroke="#915d06"></path><path d="M561.6 190.3L490.6 281.6L705.2 344.6Z" fill="#f9a826" stroke="#f9a826"></path><path d="M1390.4 157.3L1210.8 0L1196.8 171.3Z" fill="#aa6f0e" stroke="#aa6f0e"></path><path d="M1596.9 766.4L1540.9 652.1L1418.4 747.4Z" fill="#aa6f0e" stroke="#aa6f0e"></path><path d="M873.7 1080L1035.3 949.7L869.7 896.7Z" fill="#915d06" stroke="#915d06"></path><path d="M1035.3 949.7L1199.8 1080L1246.8 896.7Z" fill="#855403" stroke="#855403"></path><path d="M879.7 0L744.2 0L864.7 114.3Z" fill="#b77812" stroke="#b77812"></path><path d="M736.2 1080L873.7 1080L869.7 896.7Z" fill="#915d06" stroke="#915d06"></path><path d="M1040.3 1080L1199.8 1080L1035.3 949.7Z" fill="#aa6f0e" stroke="#aa6f0e"></path><path d="M374.1 767.4L567.6 954.7L566.6 733.4Z" fill="#b77812" stroke="#b77812"></path><path d="M679.2 949.7L736.2 1080L869.7 896.7Z" fill="#855403" stroke="#855403"></path><path d="M567.6 954.7L736.2 1080L679.2 949.7Z" fill="#de941e" stroke="#de941e"></path><path d="M1731.5 296.6L1563.9 262.6L1541.9 452.9Z" fill="#f9a826" stroke="#f9a826"></path><path d="M1541.9 452.9L1563.9 262.6L1400.4 268.6Z" fill="#ec9e22" stroke="#ec9e22"></path><path d="M1390.4 157.3L1392.4 0L1210.8 0Z" fill="#d18b1a" stroke="#d18b1a"></path><path d="M324.1 459.9L356.1 630.1L559.6 440.9Z" fill="#9e660a" stroke="#9e660a"></path><path d="M514.6 650.1L374.1 767.4L566.6 733.4Z" fill="#9e660a" stroke="#9e660a"></path><path d="M1571.9 138.3L1392.4 0L1390.4 157.3Z" fill="#c48116" stroke="#c48116"></path><path d="M1386.4 892.7L1596.9 766.4L1418.4 747.4Z" fill="#855403" stroke="#855403"></path><path d="M1540.9 652.1L1774.5 631.1L1541.9 452.9Z" fill="#794b01" stroke="#794b01"></path><path d="M1578.9 942.7L1596.9 766.4L1386.4 892.7Z" fill="#794b01" stroke="#794b01"></path><path d="M1199.8 1080L1351.4 1080L1246.8 896.7Z" fill="#c48116" stroke="#c48116"></path><path d="M356.1 630.1L374.1 767.4L514.6 650.1Z" fill="#794b01" stroke="#794b01"></path><path d="M332.1 269.6L324.1 459.9L490.6 281.6Z" fill="#9e660a" stroke="#9e660a"></path><path d="M490.6 281.6L324.1 459.9L559.6 440.9Z" fill="#c48116" stroke="#c48116"></path><path d="M217.5 771.4L367.1 922.7L374.1 767.4Z" fill="#794b01" stroke="#794b01"></path><path d="M744.2 0L544.6 0L663.2 182.3Z" fill="#794b01" stroke="#794b01"></path><path d="M323.1 169.3L332.1 269.6L490.6 281.6Z" fill="#855403" stroke="#855403"></path><path d="M1731.5 296.6L1571.9 138.3L1563.9 262.6Z" fill="#de941e" stroke="#de941e"></path><path d="M1563.9 262.6L1571.9 138.3L1390.4 157.3Z" fill="#de941e" stroke="#de941e"></path><path d="M323.1 169.3L490.6 281.6L561.6 190.3Z" fill="#de941e" stroke="#de941e"></path><path d="M1567.9 1080L1578.9 942.7L1386.4 892.7Z" fill="#aa6f0e" stroke="#aa6f0e"></path><path d="M217.5 771.4L374.1 767.4L356.1 630.1Z" fill="#c48116" stroke="#c48116"></path><path d="M374.1 767.4L367.1 922.7L567.6 954.7Z" fill="#915d06" stroke="#915d06"></path><path d="M567.6 954.7L477.6 1080L736.2 1080Z" fill="#de941e" stroke="#de941e"></path><path d="M219.5 329.6L205.5 497.9L324.1 459.9Z" fill="#c48116" stroke="#c48116"></path><path d="M544.6 0L323.1 169.3L561.6 190.3Z" fill="#f9a826" stroke="#f9a826"></path><path d="M367.1 922.7L477.6 1080L567.6 954.7Z" fill="#aa6f0e" stroke="#aa6f0e"></path><path d="M1720.5 951.7L1719.5 765.4L1596.9 766.4Z" fill="#b77812" stroke="#b77812"></path><path d="M1596.9 766.4L1719.5 765.4L1540.9 652.1Z" fill="#d18b1a" stroke="#d18b1a"></path><path d="M1781.5 417.9L1731.5 296.6L1541.9 452.9Z" fill="#aa6f0e" stroke="#aa6f0e"></path><path d="M1571.9 138.3L1584.9 0L1392.4 0Z" fill="#c48116" stroke="#c48116"></path><path d="M1746.5 118.3L1584.9 0L1571.9 138.3Z" fill="#f9a826" stroke="#f9a826"></path><path d="M219.5 329.6L324.1 459.9L332.1 269.6Z" fill="#b77812" stroke="#b77812"></path><path d="M324.1 459.9L205.5 497.9L356.1 630.1Z" fill="#aa6f0e" stroke="#aa6f0e"></path><path d="M1719.5 765.4L1774.5 631.1L1540.9 652.1Z" fill="#794b01" stroke="#794b01"></path><path d="M1774.5 631.1L1781.5 417.9L1541.9 452.9Z" fill="#9e660a" stroke="#9e660a"></path><path d="M185.5 170.3L219.5 329.6L332.1 269.6Z" fill="#915d06" stroke="#915d06"></path><path d="M1351.4 1080L1567.9 1080L1386.4 892.7Z" fill="#aa6f0e" stroke="#aa6f0e"></path><path d="M1578.9 942.7L1720.5 951.7L1596.9 766.4Z" fill="#c48116" stroke="#c48116"></path><path d="M205.5 497.9L192.5 620.1L356.1 630.1Z" fill="#c48116" stroke="#c48116"></path><path d="M0 586.1L192.5 620.1L205.5 497.9Z" fill="#f9a826" stroke="#f9a826"></path><path d="M192.5 620.1L217.5 771.4L356.1 630.1Z" fill="#f9a826" stroke="#f9a826"></path><path d="M367.1 922.7L337.1 1080L477.6 1080Z" fill="#c48116" stroke="#c48116"></path><path d="M544.6 0L339.1 0L323.1 169.3Z" fill="#d18b1a" stroke="#d18b1a"></path><path d="M323.1 169.3L185.5 170.3L332.1 269.6Z" fill="#aa6f0e" stroke="#aa6f0e"></path><path d="M1920 739.4L1920 649.1L1774.5 631.1Z" fill="#aa6f0e" stroke="#aa6f0e"></path><path d="M1567.9 1080L1720.5 951.7L1578.9 942.7Z" fill="#ec9e22" stroke="#ec9e22"></path><path d="M1920 122.3L1746.5 118.3L1731.5 296.6Z" fill="#f9a826" stroke="#f9a826"></path><path d="M1731.5 296.6L1746.5 118.3L1571.9 138.3Z" fill="#de941e" stroke="#de941e"></path><path d="M218.5 1080L337.1 1080L367.1 922.7Z" fill="#9e660a" stroke="#9e660a"></path><path d="M204.5 0L185.5 170.3L323.1 169.3Z" fill="#9e660a" stroke="#9e660a"></path><path d="M219.5 329.6L0 463.9L205.5 497.9Z" fill="#f9a826" stroke="#f9a826"></path><path d="M1746.5 118.3L1724.5 0L1584.9 0Z" fill="#b77812" stroke="#b77812"></path><path d="M1781.5 417.9L1920 311.6L1731.5 296.6Z" fill="#b77812" stroke="#b77812"></path><path d="M1746.5 118.3L1920 0L1724.5 0Z" fill="#f9a826" stroke="#f9a826"></path><path d="M1774.5 631.1L1920 479.9L1781.5 417.9Z" fill="#915d06" stroke="#915d06"></path><path d="M1920 649.1L1920 479.9L1774.5 631.1Z" fill="#d18b1a" stroke="#d18b1a"></path><path d="M1920 739.4L1774.5 631.1L1719.5 765.4Z" fill="#de941e" stroke="#de941e"></path><path d="M1567.9 1080L1743.5 1080L1720.5 951.7Z" fill="#b77812" stroke="#b77812"></path><path d="M1920 968.7L1920 739.4L1719.5 765.4Z" fill="#855403" stroke="#855403"></path><path d="M339.1 0L204.5 0L323.1 169.3Z" fill="#f9a826" stroke="#f9a826"></path><path d="M1920 479.9L1920 311.6L1781.5 417.9Z" fill="#f9a826" stroke="#f9a826"></path><path d="M1920 968.7L1719.5 765.4L1720.5 951.7Z" fill="#d18b1a" stroke="#d18b1a"></path><path d="M136.5 968.7L218.5 1080L367.1 922.7Z" fill="#855403" stroke="#855403"></path><path d="M136.5 968.7L367.1 922.7L217.5 771.4Z" fill="#c48116" stroke="#c48116"></path><path d="M0 735.4L217.5 771.4L192.5 620.1Z" fill="#794b01" stroke="#794b01"></path><path d="M0 929.7L136.5 968.7L217.5 771.4Z" fill="#d18b1a" stroke="#d18b1a"></path><path d="M0 325.6L219.5 329.6L185.5 170.3Z" fill="#d18b1a" stroke="#d18b1a"></path><path d="M0 325.6L0 463.9L219.5 329.6Z" fill="#f9a826" stroke="#f9a826"></path><path d="M0 463.9L0 586.1L205.5 497.9Z" fill="#b77812" stroke="#b77812"></path><path d="M1920 311.6L1920 122.3L1731.5 296.6Z" fill="#c48116" stroke="#c48116"></path><path d="M0 153.3L0 325.6L185.5 170.3Z" fill="#b77812" stroke="#b77812"></path><path d="M0 586.1L0 735.4L192.5 620.1Z" fill="#794b01" stroke="#794b01"></path><path d="M1743.5 1080L1920 968.7L1720.5 951.7Z" fill="#c48116" stroke="#c48116"></path><path d="M0 0L0 153.3L185.5 170.3Z" fill="#794b01" stroke="#794b01"></path><path d="M1920 122.3L1920 0L1746.5 118.3Z" fill="#915d06" stroke="#915d06"></path><path d="M0 735.4L0 929.7L217.5 771.4Z" fill="#d18b1a" stroke="#d18b1a"></path><path d="M136.5 968.7L0 1080L218.5 1080Z" fill="#de941e" stroke="#de941e"></path><path d="M1743.5 1080L1920 1080L1920 968.7Z" fill="#9e660a" stroke="#9e660a"></path><path d="M204.5 0L0 0L185.5 170.3Z" fill="#f9a826" stroke="#f9a826"></path><path d="M0 929.7L0 1080L136.5 968.7Z" fill="#794b01" stroke="#794b01"></path></g></svg>